# 3ds Max Wavefront OBJ Exporter v0.97b - (c)2007 guruware
# File Created: 03.09.2014 13:03:27

mtllib Ring_Export_OBJ.mtl

#
# object GUI_Ring
#

v  184.4193 -68.4868 0.0757
v  184.4193 68.4168 0.0757
v  180.8765 68.4168 -35.8950
v  180.8765 -68.4868 -35.8950
v  170.3842 68.4168 -70.4834
v  170.3842 -68.4868 -70.4834
v  153.3457 68.4168 -102.3602
v  153.3457 -68.4868 -102.3602
v  130.4158 68.4168 -130.3005
v  130.4158 -68.4868 -130.3005
v  102.4755 68.4168 -153.2304
v  102.4755 -68.4868 -153.2304
v  70.5987 68.4168 -170.2690
v  70.5987 -68.4868 -170.2690
v  36.0103 68.4168 -180.7612
v  36.0103 -68.4868 -180.7612
v  0.0396 68.4168 -184.3040
v  0.0396 -68.4868 -184.3040
v  -35.9311 68.4168 -180.7612
v  -35.9311 -68.4868 -180.7612
v  -70.5194 68.4168 -170.2690
v  -70.5194 -68.4868 -170.2690
v  -102.3962 68.4168 -153.2304
v  -102.3962 -68.4868 -153.2304
v  -130.3365 68.4168 -130.3005
v  -130.3365 -68.4868 -130.3005
v  -153.2665 68.4168 -102.3602
v  -153.2665 -68.4868 -102.3602
v  -170.3050 68.4168 -70.4833
v  -170.3050 -68.4868 -70.4833
v  -180.7973 68.4168 -35.8950
v  -180.7973 -68.4868 -35.8950
v  -184.3401 68.4168 0.0757
v  -184.3401 -68.4868 0.0757
v  -180.7973 68.4168 36.0465
v  -180.7973 -68.4868 36.0465
v  -170.3050 68.4168 70.6348
v  -170.3050 -68.4868 70.6348
v  -153.2664 68.4168 102.5116
v  -153.2664 -68.4868 102.5116
v  -130.3364 68.4168 130.4519
v  -130.3364 -68.4868 130.4519
v  -102.3962 68.4168 153.3819
v  -102.3962 -68.4868 153.3819
v  -70.5193 68.4168 170.4204
v  -70.5193 -68.4868 170.4204
v  -35.9309 68.4168 180.9126
v  -35.9309 -68.4868 180.9126
v  0.0398 68.4168 184.4554
v  0.0398 -68.4868 184.4554
v  36.0105 68.4168 180.9125
v  36.0105 -68.4868 180.9125
v  70.5989 68.4168 170.4202
v  70.5989 -68.4868 170.4202
v  102.4757 68.4168 153.3817
v  102.4757 -68.4868 153.3817
v  130.4159 68.4168 130.4517
v  130.4159 -68.4868 130.4517
v  153.3459 68.4168 102.5114
v  153.3459 -68.4868 102.5114
v  170.3844 68.4168 70.6345
v  170.3844 -68.4868 70.6345
v  180.8766 68.4168 36.0461
v  180.8766 -68.4868 36.0461
# 64 vertices

vn -1.0000 0.0000 0.0000
vn -0.9808 0.0000 0.1951
vn -0.9239 0.0000 0.3827
vn -0.8315 0.0000 0.5556
vn -0.7071 0.0000 0.7071
vn -0.5556 0.0000 0.8315
vn -0.3827 0.0000 0.9239
vn -0.1951 0.0000 0.9808
vn -0.0000 0.0000 1.0000
vn 0.1951 0.0000 0.9808
vn 0.3827 0.0000 0.9239
vn 0.5556 0.0000 0.8315
vn 0.7071 0.0000 0.7071
vn 0.8315 0.0000 0.5556
vn 0.9239 0.0000 0.3827
vn 0.9808 0.0000 0.1951
vn 1.0000 0.0000 -0.0000
vn 0.9808 0.0000 -0.1951
vn 0.9239 0.0000 -0.3827
vn 0.8315 0.0000 -0.5556
vn 0.7071 0.0000 -0.7071
vn 0.5556 0.0000 -0.8315
vn 0.3827 0.0000 -0.9239
vn 0.1951 0.0000 -0.9808
vn -0.0000 0.0000 -1.0000
vn -0.1951 0.0000 -0.9808
vn -0.3827 0.0000 -0.9239
vn -0.5556 0.0000 -0.8315
vn -0.7071 0.0000 -0.7071
vn -0.8315 0.0000 -0.5556
vn -0.9239 0.0000 -0.3827
vn -0.9808 0.0000 -0.1951
# 32 vertex normals

vt 0.6930 0.2357 0.0000
vt 0.7652 0.3079 0.0000
vt 0.7366 0.3365 0.0000
vt 0.6644 0.2643 0.0000
vt 0.7080 0.3651 0.0000
vt 0.6358 0.2929 0.0000
vt 0.6795 0.3936 0.0000
vt 0.6073 0.3215 0.0000
vt 0.6509 0.4222 0.0000
vt 0.5787 0.3500 0.0000
vt 0.6223 0.4508 0.0000
vt 0.5501 0.3786 0.0000
vt 0.5937 0.4794 0.0000
vt 0.5216 0.4072 0.0000
vt 0.5652 0.5080 0.0000
vt 0.4930 0.4358 0.0000
vt 0.5366 0.5365 0.0000
vt 0.4644 0.4643 0.0000
vt 0.5080 0.5651 0.0000
vt 0.4358 0.4929 0.0000
vt 0.4795 0.5937 0.0000
vt 0.4073 0.5215 0.0000
vt 0.4509 0.6222 0.0000
vt 0.3787 0.5501 0.0000
vt 0.4223 0.6508 0.0000
vt 0.3501 0.5786 0.0000
vt 0.3938 0.6794 0.0000
vt 0.3216 0.6072 0.0000
vt 0.3652 0.7080 0.0000
vt 0.2930 0.6358 0.0000
vt 0.3366 0.7365 0.0000
vt 0.2644 0.6644 0.0000
vt 0.3081 0.7651 0.0000
vt 0.2359 0.6930 0.0000
vt 0.2795 0.7937 0.0000
vt 0.2073 0.7215 0.0000
vt 0.2509 0.8223 0.0000
vt 0.1787 0.7501 0.0000
vt 0.2224 0.8509 0.0000
vt 0.1502 0.7787 0.0000
vt 0.1938 0.8795 0.0000
vt 0.1216 0.8073 0.0000
vt 0.1652 0.9080 0.0000
vt 0.0930 0.8358 0.0000
vt 0.1367 0.9366 0.0000
vt 0.0645 0.8644 0.0000
vt 0.1081 0.9652 0.0000
vt 0.0359 0.8930 0.0000
vt 0.0795 0.9937 0.0000
vt 0.0073 0.9216 0.0000
vt 0.9215 0.0071 0.0000
vt 0.9937 0.0793 0.0000
vt 0.9651 0.1079 0.0000
vt 0.8930 0.0357 0.0000
vt 0.9366 0.1365 0.0000
vt 0.8644 0.0643 0.0000
vt 0.9080 0.1650 0.0000
vt 0.8358 0.0928 0.0000
vt 0.8794 0.1936 0.0000
vt 0.8072 0.1214 0.0000
vt 0.8509 0.2222 0.0000
vt 0.7787 0.1500 0.0000
vt 0.8223 0.2507 0.0000
vt 0.7501 0.1786 0.0000
vt 0.7937 0.2793 0.0000
vt 0.7215 0.2072 0.0000
# 66 texture coords

g GUI_Ring
usemtl wire_028149177
s 8
f 1/1/1 2/2/1 3/3/2 4/4/2 
f 4/4/2 3/3/2 5/5/3 6/6/3 
f 6/6/3 5/5/3 7/7/4 8/8/4 
f 8/8/4 7/7/4 9/9/5 10/10/5 
f 10/10/5 9/9/5 11/11/6 12/12/6 
f 12/12/6 11/11/6 13/13/7 14/14/7 
f 14/14/7 13/13/7 15/15/8 16/16/8 
f 16/16/8 15/15/8 17/17/9 18/18/9 
f 18/18/9 17/17/9 19/19/10 20/20/10 
f 20/20/10 19/19/10 21/21/11 22/22/11 
f 22/22/11 21/21/11 23/23/12 24/24/12 
f 24/24/12 23/23/12 25/25/13 26/26/13 
f 26/26/13 25/25/13 27/27/14 28/28/14 
f 28/28/14 27/27/14 29/29/15 30/30/15 
f 30/30/15 29/29/15 31/31/16 32/32/16 
f 32/32/16 31/31/16 33/33/17 34/34/17 
f 34/34/17 33/33/17 35/35/18 36/36/18 
f 36/36/18 35/35/18 37/37/19 38/38/19 
f 38/38/19 37/37/19 39/39/20 40/40/20 
f 40/40/20 39/39/20 41/41/21 42/42/21 
f 42/42/21 41/41/21 43/43/22 44/44/22 
f 44/44/22 43/43/22 45/45/23 46/46/23 
f 46/46/23 45/45/23 47/47/24 48/48/24 
f 48/48/24 47/47/24 49/49/25 50/50/25 
f 50/51/25 49/52/25 51/53/26 52/54/26 
f 52/54/26 51/53/26 53/55/27 54/56/27 
f 54/56/27 53/55/27 55/57/28 56/58/28 
f 56/58/28 55/57/28 57/59/29 58/60/29 
f 58/60/29 57/59/29 59/61/30 60/62/30 
f 60/62/30 59/61/30 61/63/31 62/64/31 
f 62/64/31 61/63/31 63/65/32 64/66/32 
f 64/66/32 63/65/32 2/2/1 1/1/1 
# 32 polygons

